# xmcd
#
# Track frame offsets:
#	150
#	14948
#	26806
#	37861
#	49431
#	60444
#	70269
#	81864
#	92270
#	104096
#	115627
#	125692
#
# Disc length: 1823 seconds
#
# Revision: 1
# Processed by: cddbd v1.5.1PL2 Copyright (c) Steve Scherf et al.
# Submitted via: audiograbber 1.83.01
#
DISCID=a2071d0c
DTITLE=Roy Acuff - Roy Acuff
DYEAR=1900
DGENRE=Country
TTITLE0=The Precious Jewel
TTITLE1=Our Own (Jole Blon)
TTITLE2=The Wreck on the Highway
TTITLE3=Blue Eyes Crying in the Rain
TTITLE4=Night Train to Memphis
TTITLE5=Fireball Mail
TTITLE6=Once More
TTITLE7=So Many Times
TTITLE8=Come and Knock (on the Door of My Heart)
TTITLE9=Freight Train Blues
TTITLE10=Back in the Country
TTITLE11=Old Times Sunshine Song
EXTD=
EXTT0=
EXTT1=
EXTT2=
EXTT3=
EXTT4=
EXTT5=
EXTT6=
EXTT7=
EXTT8=
EXTT9=
EXTT10=
EXTT11=
PLAYORDER=
